# xmcd
#
# Track frame offsets: 
#        150
#        3167
#        21937
#        40517
#        60540
#        81335
#        99955
#        121480
#        141527
#        164575
#        187255
#        211375
#        231065
#
# Disc length: 3372 seconds
#
# Revision: 1
# Processed by: cddbd v1.5.2PL0 Copyright (c) Steve Scherf et al.
# Submitted via: ExactAudioCopy v1.4
#
DISCID=af0d2a0d
DTITLE=Coko - Hot Coko
DYEAR=1999
DGENRE=R&B
TTITLE0=Intro
TTITLE1=Don't Take Your Love Away
TTITLE2=Sunshine
TTITLE3=You And Me
TTITLE4=Bigger Than We
TTITLE5=Try-Na Come Home
TTITLE6=Coko Feat. Eve - Triflin'
TTITLE7=I Ain't Feelin You
TTITLE8=Everytime
TTITLE9=All My Lovin
TTITLE10=Coko Feat. Tyrese - If This World Were Mine
TTITLE11=So Hard To Say Goodbye
TTITLE12=He Be Back
EXTD=
EXTT0=
EXTT1=
EXTT2=
EXTT3=
EXTT4=
EXTT5=
EXTT6=
EXTT7=
EXTT8=
EXTT9=
EXTT10=
EXTT11=
EXTT12=
PLAYORDER=
